# xmcd CD database file
#
# Track frame offsets:
#	150
#	1356
#	21849
#	35362
#	53913
#	72449
#	89849
#	107302
#	128060
#	143498
#	154817
#	175377
#	191844
#	207276
#	227849
#	254771
#	277096
#
# Disc length: 3936 seconds
#
# Revision: 0
# Processed by: cddbd v1.5.2PL0 Copyright (c) Steve Scherf et al.
# Submitted via: Feurio! 1.68 - http://www.feurio.com
#
DISCID=f70f5e11
DTITLE=Various Artist - Power Aerobic - 2008/I - Club
DYEAR=2008
DGENRE=Aerobic - Tae Bo
TTITLE0=Move Ya! - Intro
TTITLE1=Jestofunk - Say It Again (L. Payton Remix)
TTITLE2=Doc Phatt - Been A Long Time
TTITLE3=Wendell Kos vs. Dubby Moodge - City On Fire (Scandall Remix)
TTITLE4=DJ Jose - Turn The Lights Off
TTITLE5=Marc Maris and Wood - Captured
TTITLE6=Brothers Incognito - Self Control
TTITLE7=DJ Gollum - Fairytale Gone Bad
TTITLE8=Groovestylerz - Prove Your Love
TTITLE9=Swanky Tunes - No More Fear (Klaas Remix)
TTITLE10=Chab - Close To Me (Remix)
TTITLE11=Re-Fuge feat. N. Tyler - So Real (Milo and CJ Stone Remix)
TTITLE12=Tocadisco - You're No Good For Me
TTITLE13=Comiccon - Luvstruck
TTITLE14=DJ Jean - Feel It (Anthem Mix)
TTITLE15=Aly-Us - Follow Me
TTITLE16=Blank and Jones - Unknown Treasure
EXTD=Spring 08\r\nCardio: 56:18\r\n140 BPM
EXTT0=
EXTT1=
EXTT2=
EXTT3=
EXTT4=
EXTT5=
EXTT6=
EXTT7=
EXTT8=
EXTT9=
EXTT10=
EXTT11=
EXTT12=
EXTT13=
EXTT14=
EXTT15=
EXTT16=
PLAYORDER=
